<?xml version="1.0" standalone="no"?>
<!DOCTYPE svg PUBLIC "-//W3C//DTD SVG 20010904//EN"
 "http://www.w3.org/TR/2001/REC-SVG-20010904/DTD/svg10.dtd">
<svg version="1.0" xmlns="http://www.w3.org/2000/svg"
 width="700.000000pt" height="700.000000pt" viewBox="0 0 700.000000 700.000000"
 preserveAspectRatio="xMidYMid meet">
<metadata>
Created by potrace 1.11, written by Peter Selinger 2001-2013
</metadata>
<g transform="translate(0.000000,700.000000) scale(0.100000,-0.100000)"
fill="#000000" stroke="none">
<path d="M1075 6696 c-348 -55 -640 -309 -743 -646 -43 -141 -43 -145 -40
-2610 4 -2619 -2 -2394 71 -2575 113 -275 361 -483 660 -553 67 -16 251 -17
2477 -17 2226 0 2410 1 2477 17 356 83 628 355 711 711 16 67 17 251 17 2477
0 2226 -1 2410 -17 2477 -70 299 -278 547 -553 660 -181 73 48 67 -2600 69
-1869 2 -2397 -1 -2460 -10z m675 -1011 l0 -435 -436 0 -435 0 3 318 c3 311 3
318 27 362 43 83 127 155 211 181 14 4 161 8 328 8 l302 1 0 -435z m2920 -730
l0 -1165 -1170 0 -1170 0 0 1165 0 1165 1170 0 1170 0 0 -1165z m1260 1136
c61 -32 126 -96 158 -156 l27 -50 3 -317 3 -318 -435 0 -436 0 0 436 0 435
318 -3 c311 -3 318 -3 362 -27z m-4180 -1861 l0 -440 -435 0 -435 0 0 440 0
440 435 0 435 0 0 -440z m4370 0 l0 -440 -435 0 -435 0 0 440 0 440 435 0 435
0 0 -440z m-4370 -1460 l0 -440 -435 0 -435 0 0 440 0 440 435 0 435 0 0 -440z
m2920 -725 l0 -1165 -1170 0 -1170 0 0 1165 0 1165 1170 0 1170 0 0 -1165z
m1450 725 l0 -440 -435 0 -435 0 0 440 0 440 435 0 435 0 0 -440z m-4370
-1456 l0 -435 -317 3 -318 3 -50 27 c-60 32 -124 97 -156 158 -24 44 -24 51
-27 363 l-3 317 435 0 436 0 0 -436z m4368 119 c-3 -312 -3 -319 -27 -363 -32
-61 -96 -126 -156 -158 l-50 -27 -317 -3 -318 -3 0 435 0 436 436 0 435 0 -3
-317z"/>
</g>
</svg>
